/* XPM */
static char *result[] = {
/* columns rows colors chars-per-pixel */
"64 64 137 2 ",
"   c #000000",
".  c #0C0606",
"X  c #0C0806",
"o  c #06060D",
"O  c #06080A",
"+  c #0E090D",
"@  c #140606",
"#  c #120D07",
"$  c #150C0A",
"%  c #1B0B0A",
"&  c #141006",
"*  c #17100C",
"=  c #1B110E",
"-  c #1D1809",
";  c #0A0A13",
":  c #130F10",
">  c #0C1115",
",  c #1A1212",
"<  c #5D2424",
"1  c #622525",
"2  c #6B2727",
"3  c #672728",
"4  c #672828",
"5  c #6A2929",
"6  c #722A2A",
"7  c #782F2B",
"8  c #6E312A",
"9  c #663636",
"0  c #67383C",
"q  c #6B3939",
"w  c #753D3D",
"e  c #79423D",
"r  c #7F493F",
"t  c #2F2F66",
"y  c #302F65",
"u  c #32326B",
"i  c #3B366C",
"p  c #363673",
"a  c #3E3775",
"s  c #3D3975",
"d  c #373778",
"f  c #373878",
"g  c #383878",
"h  c #6D3E48",
"j  c #723F45",
"k  c #7D3F43",
"l  c #44366C",
"z  c #46396F",
"x  c #4E3E6F",
"c  c #463871",
"v  c #403D78",
"b  c #3D427F",
"n  c #734146",
"m  c #794140",
"M  c #7C4942",
"N  c #4C466D",
"B  c #464270",
"V  c #4A4276",
"C  c #44477D",
"Z  c #4A4278",
"A  c #514476",
"S  c #803F3F",
"D  c #AB3232",
"F  c #A7353B",
"G  c #B63636",
"H  c #BB3737",
"J  c #BA3937",
"K  c #B23A3E",
"L  c #BC3939",
"P  c #C23938",
"I  c #83443E",
"U  c #82483F",
"Y  c #8E6536",
"T  c #956A39",
"R  c #9F6D3D",
"E  c #A1703D",
"W  c #CA403B",
"Q  c #C64E3C",
"!  c #C84A3C",
"~  c #B23C41",
"^  c #814040",
"/  c #804A40",
"(  c #865142",
")  c #8A5542",
"_  c #A06F40",
"`  c #A37241",
"'  c #AD7B46",
"]  c #B77A5F",
"[  c #BB7D64",
"{  c #E65F44",
"}  c #EA5F45",
"|  c #E96145",
" . c #F26446",
".. c #F86848",
"X. c #C17D62",
"o. c #9C812F",
"O. c #9E8335",
"+. c #A38632",
"@. c #A58832",
"#. c #AC8D3D",
"$. c #B28D39",
"%. c #B39437",
"&. c #B99837",
"*. c #B5943A",
"=. c #B89338",
"-. c #BA9B39",
";. c #C2A23D",
":. c #A48942",
">. c #AC9346",
",. c #AA944A",
"<. c #B09947",
"1. c #C18064",
"2. c #C98766",
"3. c #C4846F",
"4. c #C8836E",
"5. c #CD896B",
"6. c #D48E6C",
"7. c #C08372",
"8. c #C88772",
"9. c #C98872",
"0. c #D28D71",
"q. c #DA9171",
"w. c #E7C554",
"e. c #EAC555",
"r. c #EECE53",
"t. c #F2C755",
"y. c #F3D256",
"u. c #F8D858",
"i. c #3D4380",
"p. c #5E87A3",
"a. c #5F88A3",
"s. c #648FAC",
"d. c #7398A9",
"f. c #658EB0",
"g. c #6B96BA",
"h. c #79A0B3",
"j. c None",
/* pixels */
"j.j.j.j.j.j.j.j.j.j.j.j.j.j.j.j.j.j.j.j.j.j.j.j.j.j.j.j.j.j.j.j.j.j.j.j.j.j.j.j.j.j.j.j.j.j.j.j.j.j.j.j.j.j.j.j.j.j.j.j.j.j.j.j.",
"j.j.j.j.j.j.j.j.j.j.j.j.j.j.j.j.j.j.j.j.j.j.j.j.j.j.j.j.j.j.j.j.j.j.j.j.j.j.j.j.j.j.j.j.j.j.j.j.j.j.j.j.j.j.j.j.j.j.j.j.j.j.j.j.",
"j.j.j.j.j.j.j.j.j.j.j.j.j.j.j.j.j.j.j.j.j.j.j.j.j.j.j.j.j.j.j.j.j.j.j.j.j.j.j.j.j.j.j.j.j.j.j.j.j.j.j.j.j.j.j.j.j.j.j.j.j.j.j.j.",
"j.j.j.j.j.j.j.j.j.j.j.j.j.j.j.j.j.j.j.j.j.j.j.j.j.j.j.j.j.j.j.j.j.j.j.j.j.j.j.j.j.j.j.j.j.j.j.j.j.j.j.j.j.j.j.j.j.j.j.j.j.j.j.j.",
"j.j.j.j.j.j.j.j.j.j.j.j.j.j.j.j.j.j.j.j.j.j.j.j.j.j.j.j.j.j.j.j.j.j.j.j.j.j.j.j.j.j.j.j.j.j.j.j.j.j.j.j.j.j.j.j.j.j.j.j.j.j.j.j.",
"j.j.j.j.j.j.j.j.j.j.j.j.j.j.j.j.j.j.j.j.j.j.j.j.j.j.j.j.j.j.j.j.j.j.j.j.j.j.j.j.j.j.j.j.j.j.j.j.j.j.j.j.j.j.j.j.j.j.j.j.j.j.j.j.",
"j.j.j.j.j.j.j.j.j.j.j.j.j.j.j.j.j.j.j.j.j.j.j.j.j.j.j.j.j.j.j.j.j.j.j.j.j.j.j.j.j.j.j.j.j.j.j.j.j.j.j.j.j.j.j.j.j.j.j.j.j.j.j.j.",
"j.j.j.j.j.j.j.j.j.j.j.j.j.j.j.j.j.j.j.j.j.j.j.j.j.j.j.j.j.j.j.j.j.j.j.j.j.j.j.j.j.j.j.j.j.j.j.j.j.j.j.j.j.j.j.j.j.j.j.j.j.j.j.j.",
"j.j.j.j.j.j.j.j.j.j.j.j.j.j.j.j.j.j.j.j.j.j.j.j.j.j.j.j.j.j.j.j.j.j.j.j.j.j.j.j.j.j.j.j.j.j.j.j.j.j.j.j.j.j.j.j.j.j.j.j.j.j.j.j.",
"j.j.j.j.j.j.j.j.j.j.j.j.j.j.j.j.j.j.j.j.j.j.j.j.j.j.j.j.j.j.j.j.j.j.j.j.j.j.j.j.j.j.j.j.j.j.j.j.j.j.j.j.j.j.j.j.j.j.j.j.j.j.j.j.",
"j.j.j.j.j.j.j.j.j.j.j.j.j.j.j.j.j.j.j.j.j.j.j.j.j.j.j.j.j.j.j.j.j.j.j.j.j.j.j.j.j.j.j.j.j.j.j.j.j.j.j.j.j.j.j.j.j.j.j.j.j.j.j.j.",
"j.j.j.j.j.j.j.j.j.j.j.j.j.j.j.j.j.j.j.j.j.j.j.j.j.j.j.j.j.j.j.j.j.j.j.j.j.j.j.j.j.j.j.j.j.j.j.j.j.j.j.j.j.j.j.j.j.j.j.j.j.j.j.j.",
"j.j.j.j.j.j.j.j.j.j.j.j.j.j.j.j.j.j.j.j.j.j.j.j.j.j.j.j.j.j.j.j.j.j.j.j.j.j.j.j.j.j.j.j.j.j.j.j.j.j.j.j.j.j.j.j.j.j.j.j.j.j.j.j.",
"j.j.j.j.j.j.j.j.j.j.j.j.j.j.j.j.j.j.j.j.j.j.j.j.j.j.j.j.j.j.j.j.j.j.j.j.j.j.j.j.j.j.j.j.j.j.j.j.j.j.j.j.j.j.j.j.j.j.j.j.j.j.j.j.",
"j.j.j.j.j.j.j.j.j.j.j.j.j.j.j.j.j.j.j.j.j.j.j.j.j.j.j.j.j.j.j.j.j.j.j.j.j.j.j.j.j.j.j.j.j.j.j.j.j.j.j.j.j.j.j.j.j.j.j.j.j.j.j.j.",
"j.j.j.j.j.j.j.j.j.j.j.j.j.j.j.j.j.j.j.j.j.j.j.j.j.j.j.j.j.j.j.j.j.j.j.j.j.j.j.j.j.j.j.j.j.j.j.j.j.j.j.j.j.j.j.j.j.j.j.j.j.j.j.j.",
"j.j.j.j.j.j.j.j.j.j.j.j.j.j.j.j.j.j.j.j.j.j.j.j.j.j.j.j.j.j.j.j.j.j.j.j.j.j.j.j.j.j.j.j.j.j.j.j.j.j.j.j.j.j.j.j.j.j.j.j.j.j.j.j.",
"j.j.j.j.j.j.j.j.j.j.j.j.j.j.j.j.j.j.j.j.j.j.j.j.j.j.j.j.j.j.j.j.j.j.j.j.j.j.j.j.j.j.j.j.j.j.j.j.j.j.j.j.j.j.j.j.j.j.j.j.j.j.j.j.",
"j.j.j.j.j.j.j.j.j.j.j.j.j.j.j.j.j.j.j.j.j.j.j.j.j.j.j.j.j.j.j.j.j.j.j.j.j.j.j.j.j.j.j.j.j.j.j.j.j.j.j.j.j.j.j.j.j.j.j.j.j.j.j.j.",
"j.j.j.j.j.j.j.j.j.j.j.j.j.j.j.j.j.j.j.j.j.j.j.j.j.j.j.j.j.j.j.j.j.j.j.j.j.j.j.j.j.j.j.j.j.j.j.j.j.j.j.j.j.j.j.j.j.j.j.j.j.j.j.j.",
"j.j.j.j.j.j.j.j.j.j.j.j.j.j.j.j.j.j.j.j.j.j.j.j.j.j.j.j.j.j.j.j.j.j.j.j.j.j.j.j.j.j.j.j.j.j.j.j.j.j.j.j.j.j.j.j.j.j.j.j.j.j.j.j.",
"j.j.j.j.j.j.j.j.j.j.j.j.j.j.j.j.j.j.j.j.j.j.j.j.j.j.j.j.j.j.j.j.j.j.j.j.j.j.j.j.j.j.j.j.j.j.j.j.j.j.j.j.j.j.j.j.j.j.j.j.j.j.j.j.",
"j.j.j.j.j.j.j.j.j.j.j.j.j.j.j.j.j.j.j.j.j.j.j.j.j.j.j.j.j.j.j.j.j.j.j.j.j.j.j.j.j.j.j.j.j.j.j.j.j.j.j.j.j.j.j.j.j.j.j.j.j.j.j.j.",
"j.j.j.j.j.j.j.j.j.j.j.j.j.j.j.j.j.j.j.j.j.j.j.j.j.j.j.j.j.j.j.j.j.j.j.j.j.j.j.j.j.j.j.j.j.j.j.j.j.j.j.j.j.j.j.j.j.j.j.j.j.j.j.j.",
"j.j.j.j.j.j.j.j.j.j.j.j.j.j.j.j.j.j.j.j.j.j.j.j.j.j.j.j.j.j.j.j.j.j.j.j.j.j.j.j.j.j.j.j.j.j.j.j.j.j.j.j.j.j.j.j.j.j.j.j.j.j.j.j.",
"j.j.j.j.j.j.j.j.j.j.j.j.j.j.j.j.j.j.j.j.j.j.j.j.j.j.j.j.j.j.j.j.j.j.j.j.j.j.j.j.j.j.j.j.j.j.j.j.j.j.j.j.j.j.j.j.j.j.j.j.j.j.j.j.",
"j.j.j.j.j.j.j.j.j.j.j.j.j.j.j.j.4 4 4 4 3 3 3 4 4 4 4 4 4 4 4 4 4 4 2 4 4 4 4 4 4 4 4 1 4 4 4 4 j.j.j.j.j.j.j.j.j.j.j.j.j.j.j.j.",
"j.j.j.j.j.j.j.j.j.j.j.j.j.j.j.j.6 6 6 6 7 7 7 7 7 7 7 7 7 7 7 7 7 7 7 7 7 7 7 7 7 7 7 7 6 6 6 6 j.j.j.j.j.j.j.j.j.j.j.j.j.j.j.j.",
"j.j.j.j.j.j.j.j.j.j.j.j.4 4 4 6 G G J J | | | | } | | | | | | | | | | | } | | | | | | { L J G G 2 4 2 4 j.j.j.j.j.j.j.j.j.j.j.j.",
"j.j.j.j.j.j.j.j.j.j.j.j.4 4 4 2 P P P W ................................................W P P L 2 4 4 4 j.j.j.j.j.j.j.j.j.j.j.j.",
"j.j.j.j.j.j.j.j.j.j.j.j.4 4 2 6 |  . . ................................................... ...} 5 2 4 4 j.j.j.j.j.j.j.j.j.j.j.j.",
"j.j.j.j.j.j.j.j.j.j.j.j.6 6 6 7  ............................................................. .7 6 6 7 j.j.j.j.j.j.j.j.j.j.j.j.",
"j.j.j.j.j.j.j.j.4 2 4 2 G G G L ................................................................J G G G 6 4 4 2 j.j.j.j.j.j.j.j.",
"j.j.j.j.j.j.j.j.4 4 4 6 G P P P }  ..................................................... . .....P P P H 2 4 4 4 j.j.j.j.j.j.j.j.",
"j.j.j.j.j.j.j.j.2 4 3 6 H P L P P P P P ................................................P P P P P P P G 2 4 4 2 j.j.j.j.j.j.j.j.",
"j.j.j.j.j.j.j.j.< < < 1 H P P P P P P P }  . ... . . . . . ..... .|  . . . . . . . . . .P P P P H P P H 1 < < < j.j.j.j.j.j.j.j.",
"j.j.j.j.j.j.j.j.. . . @ G P P P P P P P P P P P P P P P P P P P P P P P P P P W P P P P H P H P P P P G @ . . . j.j.j.j.j.j.j.j.",
"j.j.j.j.j.j.j.j.      . D G G G P P P P P P P P P P P P P H P P P P P P P P P P P P P P P P P P G G G D .       j.j.j.j.j.j.j.j.",
"j.j.j.j.j.j.j.j.        2 6 6 7 H P P P H P P P P P P P P P P P P P P P P P P P H P H P P P P H 6 6 6 2         j.j.j.j.j.j.j.j.",
"j.j.j.j.j.j.j.j.# # # % 4 5 4 2 G G G G P P H P L P P P D D D D D G D D L P L P P P P P G G G K 6 2 2 1 % # # # j.j.j.j.j.j.j.j.",
"j.j.j.j.      X Y T T T S k k w 6 2 6 7 L P P P P P P G % @ @ @ @ @ @ % J P P P P P P H 6 6 6 6 w w w e T T T Y .       j.j.j.j.",
"j.j.j.j.      . ` ' :.' q q q q 5 2 4 6 G G G G G G G D @ . . . . . . @ D G G G G G G G 5 4 4 5 q q q w ' ' ' ` .       j.j.j.j.",
"j.j.j.j.      . 2.6.6.2.% . . $ w j w w 6 6 6 6 6 6 6 6 < < < < < < < < 2 6 6 6 5 6 6 6 w w w q $ . . $ 2.6.6.2.X       j.j.j.j.",
"j.j.j.j.. X X $ ] 1.[ [ .       q k w w 5 4 2 4 8 8 8 5 2 2 5 5 2 4 2 2 8 8 8 8 5 5 4 5 k m m w       . [ 1.1.] X       j.j.j.j.",
"j.j.j.j.q q q 9 = % & *         w m k m k w m e R E E R w w w w w w w w R E E E m k w k e k k q .       $ * * * j.j.j.j.j.j.j.j.",
"j.j.j.j.m m m w , & * $ o o o ; 9 q q q 0 q q q ` E ` ` e k w k m m m m ` ` E E q q q 0 q 9 q 9 $ . . .         j.j.j.j.j.j.j.j.",
"j.j.j.j.j e k m [ X.1.[ i u u t + . . o . . X $ e M / m m m k w m k m m r m m e $ . . . X . . $ q q q q j.j.j.j.j.j.j.j.j.j.j.j.",
"j.j.j.j.w k k M 8.9.9.7.v g g p + . . . . . . $ 9 q q q q q q q q q q q q q q q $ . . . o o o + 9 q q q j.j.j.j.j.j.j.j.j.j.j.j.",
"j.j.j.j.k e k n B Z Z Z g g g g h 9 9 q q q q 9 $ . . . . . . . . . . . . . . . 9 q q 0 u u u t $ . . . j.j.j.j.j.j.j.j.j.j.j.j.",
"j.j.j.j.m m w n u u u u g g d s M m ^ ^ / / U e @ @ @ @ @ @ @ @ @ @ @ @ @ @ @ % e / / m z v s i ; o o o j.j.j.j.j.j.j.j.j.j.j.j.",
"j.j.j.j.j.j.j.j.o o o ; p d g s K J J J $.$.$.$.D D D D D D D D D D D D D D D D $.*.%.$.n j j h u u u t         j.j.j.j.j.j.j.j.",
"j.j.j.j.j.j.j.j.        i l v c L P P P $.$.$.$.Q ! ! ! ! ! ! ! ! ! ! ! ! ! ! ! $.$.$.$.I w k m g f f p , * * $ j.j.j.j.j.j.j.j.",
"j.j.j.j.j.j.j.j.j.j.j.j.j j n j L P H L U r U U e.t.t.t.t.t.t.t.t.t.t.t.t.t.t.e./ r r U J J J ~ v d g v [ 1.1.[ X       j.j.j.j.",
"j.j.j.j.j.j.j.j.j.j.j.j.q q q q J P P H U r U U y.u.u.u.u.u.u.u.u.u.u.u.u.u.u.y.( U r U L P L L Z x Z A 0.q.q.5.X       j.j.j.j.",
"j.j.j.j.j.j.j.j.j.j.j.j.. . . % G P L P %.%.#.*.y.y.u.u.u.u.u.u.u.u.u.u.u.u.u.y.%.#.*.$.L P P P 8.9.9.9.q.q.q.5.X       j.j.j.j.",
"j.j.j.j.j.j.j.j.j.j.j.j.      . F K K ~ *.-.-.-.y.y.y.y.u.u.u.u.u.u.u.u.y.y.y.r.-.&.&.=.K ~ K ~ X.X.X.1.1.1.[ [ X       j.j.j.j.",
"j.j.j.j.j.j.j.j.j.j.j.j.        l c c B *.-.-.-.;.-.;.;.u.u.u.u.u.u.u.u.;.-.;.-.-.-.&.*.x c c z , * * * * * * $ j.j.j.j.j.j.j.j.",
"j.j.j.j.j.j.j.j.j.j.j.j.      O p g g s #.>.:.#.&.&.&.-.e.e.e.e.e.e.e.e.-.-.-.-.+.+.+.O.u u u t                 j.j.j.j.j.j.j.j.",
"j.j.j.j.j.j.j.j.j.j.j.j.j.j.j.j.g g g g c B B N #.&.&.*.) ( ( ( ( / ) ) *.-.&.#.- & & & o o o o j.j.j.j.j.j.j.j.j.j.j.j.j.j.j.j.",
"j.j.j.j.j.j.j.j.j.j.j.j.j.j.j.j.u u u u b i.b C ,.<.<.>.w 0 q q q q q q +.+.@.o.X               j.j.j.j.j.j.j.j.j.j.j.j.j.j.j.j.",
"j.j.j.j.j.j.j.j.j.j.j.j.j.j.j.j.o o o ; f.g.g.g.h.h.h.d.: . X . . . X . # & & & j.j.j.j.j.j.j.j.j.j.j.j.j.j.j.j.j.j.j.j.j.j.j.j.",
"j.j.j.j.j.j.j.j.j.j.j.j.j.j.j.j.      O a.s.s.s.s.s.s.a.O                       j.j.j.j.j.j.j.j.j.j.j.j.j.j.j.j.j.j.j.j.j.j.j.j.",
"j.j.j.j.j.j.j.j.j.j.j.j.j.j.j.j.j.j.j.j.> > > > > > > > j.j.j.j.j.j.j.j.j.j.j.j.j.j.j.j.j.j.j.j.j.j.j.j.j.j.j.j.j.j.j.j.j.j.j.j.",
"j.j.j.j.j.j.j.j.j.j.j.j.j.j.j.j.j.j.j.j.                j.j.j.j.j.j.j.j.j.j.j.j.j.j.j.j.j.j.j.j.j.j.j.j.j.j.j.j.j.j.j.j.j.j.j.j."
};
