/* XPM */
static char *result[] = {
/* columns rows colors chars-per-pixel */
"64 64 153 2 ",
"   c #000000",
".  c #0C0605",
"X  c #0C0806",
"o  c #05060D",
"O  c #0E070B",
"+  c #06090B",
"@  c #0D090E",
"#  c #140506",
"$  c #120D07",
"%  c #150E0B",
"&  c #1B0B09",
"*  c #1A0906",
"=  c #17100C",
"-  c #1A110E",
";  c #0A0912",
":  c #120F14",
">  c #0B1114",
",  c #0D131A",
"<  c #121216",
"1  c #19191A",
"2  c #11191E",
"3  c #5D2424",
"4  c #612825",
"5  c #672728",
"6  c #662829",
"7  c #6A2929",
"8  c #622525",
"9  c #732B2A",
"0  c #782F2B",
"q  c #663636",
"w  c #6B3939",
"e  c #67383C",
"r  c #763132",
"t  c #723C3C",
"y  c #7D3E3E",
"u  c #72403E",
"i  c #7A413F",
"p  c #2F2F66",
"a  c #31326B",
"s  c #3A346A",
"d  c #303066",
"f  c #3E3974",
"g  c #383879",
"h  c #363772",
"j  c #763F41",
"k  c #463770",
"l  c #463C70",
"z  c #413D78",
"x  c #483C74",
"c  c #44356B",
"v  c #3B407A",
"b  c #754044",
"n  c #7A4241",
"m  c #7F4848",
"M  c #494276",
"N  c #41417B",
"B  c #4C467A",
"V  c #524A7B",
"C  c #534678",
"Z  c #813F3F",
"A  c #A63233",
"S  c #AB3232",
"D  c #A9373A",
"F  c #B53636",
"G  c #BB3737",
"H  c #BA3937",
"J  c #B2393E",
"K  c #BD3A3B",
"L  c #C03737",
"P  c #C33A39",
"I  c #C83E3A",
"U  c #8E6536",
"Y  c #936738",
"T  c #956B39",
"R  c #CA403B",
"E  c #824443",
"W  c #834946",
"Q  c #874D48",
"!  c #894E49",
"~  c #BE4548",
"^  c #AA7744",
"/  c #AE7C46",
"(  c #A57542",
")  c #B77A5F",
"_  c #BC7D62",
"`  c #C74443",
"'  c #C84542",
"]  c #C44A4C",
"[  c #DD5D40",
"{  c #D75B40",
"}  c #C24E52",
"|  c #C35054",
" . c #E65F44",
".. c #EA5F45",
"X. c #DD6349",
"o. c #E96145",
"O. c #F36446",
"+. c #F86747",
"@. c #F86848",
"#. c #F36B50",
"$. c #F6765B",
"%. c #C18064",
"&. c #C98766",
"*. c #C2826D",
"=. c #CC866A",
"-. c #CF886B",
";. c #D38D6D",
":. c #C58571",
">. c #D18C71",
",. c #D79171",
"<. c #DA9372",
"1. c #3F4481",
"2. c #3F4883",
"3. c #444482",
"4. c #4B4B86",
"5. c #514E85",
"6. c #5F88A3",
"7. c #638DAB",
"8. c #6089A4",
"9. c #6590AD",
"0. c #658EB0",
"q. c #6A95B9",
"w. c #6890B5",
"e. c #9D9CBA",
"r. c #9D96B2",
"t. c #AF9DB8",
"y. c #B29EB8",
"u. c #B1A3BF",
"i. c #D7A886",
"p. c #DEAB89",
"a. c #E3B18D",
"s. c #EEB589",
"d. c #E9B285",
"f. c #F5BB8D",
"g. c #F9C190",
"h. c #A59FC1",
"j. c #A3A4C8",
"k. c #B3A4C0",
"l. c #B7B1CE",
"z. c #B8B1CD",
"x. c #B7B7D6",
"c. c #CFCFDD",
"v. c #D0C9D5",
"b. c #DCCEDF",
"n. c #E1CEDC",
"m. c #E8D3DD",
"M. c #CDCEE5",
"N. c #D5D6EB",
"B. c #E5D6E4",
"V. c #EADBE6",
"C. c #E5DCEC",
"Z. c #E3E3F5",
"A. c None",
/* pixels */
"A.A.A.A.A.A.A.A.A.A.A.A.A.A.A.A.A.A.A.A.A.A.A.A.A.A.A.A.A.A.A.A.A.A.A.A.A.A.A.A.A.A.A.A.A.A.A.A.A.A.A.A.A.A.A.A.A.A.A.A.A.A.A.A.",
"A.A.A.A.A.A.A.A.A.A.A.A.A.A.A.A.A.A.A.A.A.A.A.A.A.A.A.A.A.A.A.A.A.A.A.A.A.A.A.A.A.A.A.A.A.A.A.A.A.A.A.A.A.A.A.A.A.A.A.A.A.A.A.A.",
"A.A.A.A.A.A.A.A.A.A.A.A.A.A.A.A.A.A.A.A.A.A.A.A.A.A.A.A.A.A.A.A.A.A.A.A.A.A.A.A.A.A.A.A.A.A.A.A.A.A.A.A.A.A.A.A.A.A.A.A.A.A.A.A.",
"A.A.A.A.A.A.A.A.A.A.A.A.A.A.A.A.A.A.A.A.A.A.A.A.A.A.A.A.A.A.A.A.A.A.A.A.A.A.A.A.A.A.A.A.A.A.A.A.A.A.A.A.A.A.A.A.A.A.A.A.A.A.A.A.",
"A.A.A.A.A.A.A.A.A.A.A.A.A.A.A.A.A.A.A.A.A.A.A.A.A.A.A.A.A.A.A.A.A.A.A.A.A.A.A.A.A.A.A.A.A.A.A.A.A.A.A.A.A.A.A.A.A.A.A.A.A.A.A.A.",
"A.A.A.A.A.A.A.A.A.A.A.A.A.A.A.A.A.A.A.A.A.A.A.A.A.A.A.A.A.A.A.A.A.A.A.A.A.A.A.A.A.A.A.A.A.A.A.A.A.A.A.A.A.A.A.A.A.A.A.A.A.A.A.A.",
"A.A.A.A.A.A.A.A.A.A.A.A.A.A.A.A.A.A.A.A.A.A.A.A.A.A.A.A.A.A.A.A.A.A.A.A.A.A.A.A.A.A.A.A.A.A.A.A.A.A.A.A.A.A.A.A.A.A.A.A.A.A.A.A.",
"A.A.A.A.A.A.A.A.A.A.A.A.A.A.A.A.A.A.A.A.A.A.A.A.A.A.A.A.A.A.A.A.A.A.A.A.A.A.A.A.A.A.A.A.A.A.A.A.A.A.A.A.A.A.A.A.A.A.A.A.A.A.A.A.",
"A.A.A.A.A.A.A.A.A.A.A.A.A.A.A.A.A.A.A.A.A.A.A.A.A.A.A.A.A.A.A.A.A.A.A.A.A.A.A.A.A.A.A.A.A.A.A.A.A.A.A.A.A.A.A.A.A.A.A.A.A.A.A.A.",
"A.A.A.A.A.A.A.A.A.A.A.A.A.A.A.A.A.A.A.A.A.A.A.A.A.A.A.A.A.A.A.A.A.A.A.A.A.A.A.A.A.A.A.A.A.A.A.A.A.A.A.A.A.A.A.A.A.A.A.A.A.A.A.A.",
"A.A.A.A.A.A.A.A.A.A.A.A.A.A.A.A.A.A.A.A.A.A.A.A.A.A.A.A.A.A.A.A.A.A.A.A.A.A.A.A.A.A.A.A.A.A.A.A.A.A.A.A.A.A.A.A.A.A.A.A.A.A.A.A.",
"A.A.A.A.A.A.A.A.A.A.A.A.A.A.A.A.A.A.A.A.A.A.A.A.A.A.A.A.A.A.A.A.A.A.A.A.A.A.A.A.A.A.A.A.A.A.A.A.A.A.A.A.A.A.A.A.A.A.A.A.A.A.A.A.",
"A.A.A.A.A.A.A.A.A.A.A.A.A.A.A.A.A.A.A.A.A.A.A.A.A.A.A.A.A.A.A.A.A.A.A.A.A.A.A.A.A.A.A.A.A.A.A.A.A.A.A.A.A.A.A.A.A.A.A.A.A.A.A.A.",
"A.A.A.A.A.A.A.A.A.A.A.A.A.A.A.A.A.A.A.A.A.A.A.A.A.A.A.A.A.A.A.A.A.A.A.A.A.A.A.A.A.A.A.A.A.A.A.A.A.A.A.A.A.A.A.A.A.A.A.A.A.A.A.A.",
"A.A.A.A.A.A.A.A.A.A.A.A.A.A.A.A.A.A.A.A.A.A.A.A.A.A.A.A.A.A.A.A.A.A.A.A.A.A.A.A.A.A.A.A.A.A.A.A.A.A.A.A.A.A.A.A.A.A.A.A.A.A.A.A.",
"A.A.A.A.A.A.A.A.A.A.A.A.A.A.A.A.A.A.A.A.A.A.A.A.A.A.A.A.A.A.A.A.A.A.A.A.A.A.A.A.A.A.A.A.A.A.A.A.A.A.A.A.A.A.A.A.A.A.A.A.A.A.A.A.",
"A.A.A.A.A.A.A.A.A.A.A.A.A.A.A.A.A.A.A.A.A.A.A.A.A.A.A.A.A.A.A.A.A.A.A.A.A.A.A.A.A.A.A.A.A.A.A.A.A.A.A.A.A.A.A.A.A.A.A.A.A.A.A.A.",
"A.A.A.A.A.A.A.A.A.A.A.A.A.A.A.A.A.A.A.A.A.A.A.A.A.A.A.A.A.A.A.A.A.A.A.A.A.A.A.A.A.A.A.A.A.A.A.A.A.A.A.A.A.A.A.A.A.A.A.A.A.A.A.A.",
"A.A.A.A.A.A.A.A.A.A.A.A.A.A.A.A.A.A.A.A.A.A.A.A.A.A.A.A.A.A.A.A.A.A.A.A.A.A.A.A.A.A.A.A.A.A.A.A.A.A.A.A.A.A.A.A.A.A.A.A.A.A.A.A.",
"A.A.A.A.A.A.A.A.A.A.A.A.A.A.A.A.A.A.A.A.A.A.A.A.A.A.A.A.A.A.A.A.A.A.A.A.A.A.A.A.A.A.A.A.A.A.A.A.A.A.A.A.A.A.A.A.A.A.A.A.A.A.A.A.",
"A.A.A.A.A.A.A.A.A.A.A.A.A.A.A.A.A.A.A.A.A.A.A.A.A.A.A.A.A.A.A.A.A.A.A.A.A.A.A.A.A.A.A.A.A.A.A.A.A.A.A.A.A.A.A.A.A.A.A.A.A.A.A.A.",
"A.A.A.A.A.A.A.A.A.A.A.A.A.A.A.A.A.A.A.A.A.A.A.A.A.A.A.A.A.A.A.A.A.A.A.A.A.A.A.A.A.A.A.A.A.A.A.A.A.A.A.A.A.A.A.A.A.A.A.A.A.A.A.A.",
"A.A.A.A.A.A.A.A.A.A.A.A.A.A.A.A.A.A.A.A.A.A.A.A.A.A.A.A.A.A.A.A.A.A.A.A.A.A.A.A.A.A.A.A.A.A.A.A.A.A.A.A.A.A.A.A.A.A.A.A.A.A.A.A.",
"A.A.A.A.A.A.A.A.A.A.A.A.A.A.A.A.A.A.A.A.A.A.A.A.A.A.A.A.A.A.A.A.A.A.A.A.A.A.A.A.A.A.A.A.A.A.A.A.A.A.A.A.A.A.A.A.A.A.A.A.A.A.A.A.",
"A.A.A.A.A.A.A.A.A.A.A.A.A.A.A.A.A.A.A.A.A.A.A.A.A.A.A.A.A.A.A.A.A.A.A.A.A.A.A.A.A.A.A.A.A.A.A.A.A.A.A.A.A.A.A.A.A.A.A.A.A.A.A.A.",
"A.A.A.A.A.A.A.A.A.A.A.A.A.A.A.A.A.A.A.A.A.A.A.A.A.A.A.A.A.A.A.A.A.A.A.A.A.A.A.A.A.A.A.A.A.A.A.A.A.A.A.A.A.A.A.A.A.A.A.A.A.A.A.A.",
"A.A.A.A.A.A.A.A.A.A.A.A.A.A.A.A.5 5 5 7 6 6 6 6 5 5 6 5 5 5 5 6 6 5 5 6 5 5 5 5 6 5 6 6 5 6 5 6 A.A.A.A.A.A.A.A.A.A.A.A.A.A.A.A.",
"A.A.A.A.A.A.A.A.A.A.A.A.A.A.A.A.9 9 9 9 0 0 0 0 0 0 0 0 0 0 9 0 0 0 0 0 0 0 0 0 0 0 9 0 9 9 9 9 A.A.A.A.A.A.A.A.A.A.A.A.A.A.A.A.",
"A.A.A.A.A.A.A.A.A.A.A.A.5 5 5 7 F F F H o.o.o.o.o.o.o.o.o.o.o.o.o.o.o.o.o.o.o.o.o.o.o.o.H F F F 7 5 5 7 A.A.A.A.A.A.A.A.A.A.A.A.",
"A.A.A.A.A.A.A.A.A.A.A.A.5 5 5 7 K R I R O.+.@.@.@.@.@.@.@.@.@.@.@.@.@.@.@.@.@.@.@.@.@.O.R I R P 7 7 7 5 A.A.A.A.A.A.A.A.A.A.A.A.",
"A.A.A.A.A.A.A.A.A.A.A.A.5 5 5 9 o.O.O.O.+.@.@.@.@.@.@.@.@.@.@.@.@.@.@.@.@.@.@.@.@.@.@.@.O.O.O.o.7 6 5 7 A.A.A.A.A.A.A.A.A.A.A.A.",
"A.A.A.A.A.A.A.A.A.A.A.A.9 9 9 0 O.@.+.+.+.@.@.@.@.@.@.@.@.@.@.@.@.@.@.@.@.@.@.@.@.@.@.+.+.+.@.O.0 9 9 9 A.A.A.A.A.A.A.A.A.A.A.A.",
"A.A.A.A.A.A.A.A.7 7 7 7 F G G G O.+.+.+.@.@.@.@.@.@.@.@.@.@.+.+.@.@.@.@.@.@.@.@.@.@.@.@.@.@.+.+.G F F F 7 7 7 7 A.A.A.A.A.A.A.A.",
"A.A.A.A.A.A.A.A.3 3 3 8 G G P P o.O.O.O.@.@.@.@.@.@.@.+.@.@.@.+.@.@.@.@.@.@.@.@.@.@.@.@.O.O.O...P P L G 8 3 3 3 A.A.A.A.A.A.A.A.",
"A.A.A.A.A.A.A.A.. . . # F G P G I I I I O.@.O.@.@.@.+.+.+.+.+.+.+.+.+.+.@.@.@.@.+.@.@.+.I I I I P L P F # . . . A.A.A.A.A.A.A.A.",
"A.A.A.A.A.A.A.A.      . F L L K P L P P O.O.O.O.O.O.O.O.$.$.$.$.$.$.$.$.O.O.O.o.O.O.O...P K G L L L G F .       A.A.A.A.A.A.A.A.",
"A.A.A.A.A.A.A.A.      . F P P P K L L L I P I I I P I ` m.V.V.V.V.V.V.m.' I I P P I I I L K K G L P L F .       A.A.A.A.A.A.A.A.",
"A.A.A.A.A.A.A.A.$ $ $ & S F F F ~ ~ ~ ~ P P K K ~ ~ ~ ~ b.B.B.B.B.B.B.n.} ~ ~ ~ K L L L ~ ~ ~ ~ F F F D & $ $ $ A.A.A.A.A.A.A.A.",
"A.A.A.A.      . U T T Y r 9 9 r y.k.k.y.K K P K t.u.k.u.} ] ] ] ] ] ] } y.u.u.t.` L L K y.k.k.t.r 9 9 r Y T T U .       A.A.A.A.",
"A.A.A.A.      . ( / / ^ 3 3 3 6 e.j.j.h.| ] ] | z.x.x.z.} ] ] ] ] ] ] | z.x.x.z.} ] } } h.j.j.t.6 3 3 3 ^ / / ( .       A.A.A.A.",
"A.A.A.A.      X &.;.;.&.& . . o z 3.3.4.b.B.B.B.Z.Z.Z.Z.B.B.B.B.B.B.B.B.Z.Z.Z.Z.B.B.B.b.4.3.3.N X . . % &.;.;.&.X       A.A.A.A.",
"A.A.A.A.      X ) _ %.) % X X % x M M V M.N.N.N.N.N.N.N.N.N.N.N.N.N.N.N.N.N.N.N.N.N.N.M.5.B x x @ . . % ) %.%.) X       A.A.A.A.",
"A.A.A.A.A.A.A.A.= - - & q w w w *.:.:.:.4.4.4.4.4.4.4.4.4.4.4.4.4.4.4.4.4.4.4.4.4.4.4.5._ :.:.*.w w w q - = - % A.A.A.A.A.A.A.A.",
"A.A.A.A.A.A.A.A.      . n W W Q >.,.<.;.V B B B a a a a B B B B B B B M a a a a M B B V ;.<.<.;.! W W n .       A.A.A.A.A.A.A.A.",
"A.A.A.A.j t n t       X _ -.-.-.;.<.,.<.a.a.a.i.: o o : i.a.a.a.a.a.a.i.> o o : i.a.a.a.<.,.<.;.;.-.-._ .       A.A.A.A.A.A.A.A.",
"A.A.A.A.W W W n : o o : &.-.-.-.<.,.,.<.f.f.f.d.- X X - s.g.g.g.g.g.g.s.- X X - d.f.f.f.,.,.<.,.-.-.-.&.X       A.A.A.A.A.A.A.A.",
"n n y n =.;.-.*.s a a a W W W ! ;.<.,.,.<.<.<.,.u w w u f.g.g.g.g.g.f.f.u w w t ,.<.<.<.<.,.<.;.W W W W A.A.A.A.A.A.A.A.A.A.A.A.",
"j j j n ;.,.,.>.z g g f e w w t _ _ %.%.-.-.-.=.Q W W ! s.f.f.g.f.f.f.s.! W W Q =.-.-.-.%.%.%._ t w w w A.A.A.A.A.A.A.A.A.A.A.A.",
"i j i n ;.,.,.>.z g g h O . X X % % % - m W W Q =.-.-.;.<.<.<.<.<.<.<.<.;.-.;.&.Q W W n - & % % X X . X A.A.A.A.A.A.A.A.A.A.A.A.",
"j i n n _ %.%._ s a a p ; o o o # # # * t t y n _ %.%._ %.%.%.%.%.%.%.%.%.%.%._ E Z Z t ; o o o o o o o A.A.A.A.A.A.A.A.A.A.A.A.",
"A.A.A.A.- % = = @ o o ; p a a s A S S S 7 7 5 6 - % % = % % % - = = % % % % = - F H H J s a a a a a a p         A.A.A.A.A.A.A.A.",
"A.A.A.A.              o s f f k K L L G 9 9 9 7 * # # # < < < < < < < < # # # * D H H J C B V 4.3.B B M % X X X A.A.A.A.A.A.A.A.",
"A.A.A.A.A.A.A.A.A.A.A.A.b b b j G P P L F F F F S S S D t.r.e.e.e.e.e.r.D A S A Z Z Z E p.a.a.a.a.a.a.p.b w w w A.A.A.A.A.A.A.A.",
"A.A.A.A.A.A.A.A.A.A.A.A.w w e j S S S S G L P P I I P ` l.x.x.x.x.x.x.z.' R R R i i i W s.f.f.f.f.f.f.s.W i i i A.A.A.A.A.A.A.A.",
"A.A.A.A.A.A.A.A.A.A.A.A.X X o . # # # & G L K P O.+.O.#.N.Z.Z.Z.Z.Z.Z.C.#.@.@.@.E i b n ,.<.<.<.<.<.<.>.n n n b A.A.A.A.A.A.A.A.",
"A.A.A.A.A.A.A.A.A.A.A.A.        > , ; < D J J J { [ [ X.v.c.c.c.c.c.c.v.X.[ [ R t w w t &.-.-.-.;.-.;.=.n n j y A.A.A.A.A.A.A.A.",
"A.A.A.A.A.A.A.A.A.A.A.A.      + 8.9.9.7.x k k c = * & & 1 1 1 1 1 1 1 1 & & & & X X X $ n W W W W W W W A.A.A.A.A.A.A.A.A.A.A.A.",
"A.A.A.A.A.A.A.A.A.A.A.A.      + 8.9.9.7.3.v 1.v , > > ; o o o o                       . t j j j j j j j A.A.A.A.A.A.A.A.A.A.A.A.",
"A.A.A.A.A.A.A.A.A.A.A.A.A.A.A.A.> > > 2 0.q.q.q.9.9.9.7.a a a d +               A.A.A.A.A.A.A.A.A.A.A.A.A.A.A.A.A.A.A.A.A.A.A.A.",
"A.A.A.A.A.A.A.A.A.A.A.A.A.A.A.A.      o 0.q.q.q.q.q.q.w.h a a d                 A.A.A.A.A.A.A.A.A.A.A.A.A.A.A.A.A.A.A.A.A.A.A.A.",
"A.A.A.A.A.A.A.A.A.A.A.A.A.A.A.A.      o g 3.1.2.v 3.2.v ; ; o o A.A.A.A.A.A.A.A.A.A.A.A.A.A.A.A.A.A.A.A.A.A.A.A.A.A.A.A.A.A.A.A.",
"A.A.A.A.A.A.A.A.A.A.A.A.A.A.A.A.        d d d a a a a p         A.A.A.A.A.A.A.A.A.A.A.A.A.A.A.A.A.A.A.A.A.A.A.A.A.A.A.A.A.A.A.A.",
"A.A.A.A.A.A.A.A.A.A.A.A.A.A.A.A.A.A.A.A.o ; o o o o o o A.A.A.A.A.A.A.A.A.A.A.A.A.A.A.A.A.A.A.A.A.A.A.A.A.A.A.A.A.A.A.A.A.A.A.A.",
"A.A.A.A.A.A.A.A.A.A.A.A.A.A.A.A.A.A.A.A.                A.A.A.A.A.A.A.A.A.A.A.A.A.A.A.A.A.A.A.A.A.A.A.A.A.A.A.A.A.A.A.A.A.A.A.A."
};
