/* XPM */
static char *result[] = {
/* columns rows colors chars-per-pixel */
"64 64 159 2 ",
"   c #000000",
".  c #0C0605",
"X  c #0C0A04",
"o  c #06060D",
"O  c #0D0B0E",
"+  c #050809",
"@  c #140606",
"#  c #150C0B",
"$  c #1A0D0D",
"%  c #141006",
"&  c #1B140B",
"*  c #0A0C15",
"=  c #070812",
"-  c #0C1114",
";  c #0E131A",
":  c #19191B",
">  c #181314",
",  c #241F0C",
"<  c #212125",
"1  c #5D2424",
"2  c #652626",
"3  c #672728",
"4  c #672828",
"5  c #692929",
"6  c #6C2727",
"7  c #722A2A",
"8  c #782F2B",
"9  c #73322F",
"0  c #663636",
"q  c #6F3233",
"w  c #6F363B",
"e  c #6B3939",
"r  c #743330",
"t  c #783435",
"y  c #773833",
"u  c #753D3D",
"i  c #7C3E3F",
"p  c #783934",
"a  c #74413C",
"s  c #7A423F",
"d  c #7E493F",
"f  c #2F2F66",
"g  c #303066",
"h  c #32326C",
"j  c #3A3369",
"k  c #3C3874",
"l  c #373778",
"z  c #383878",
"x  c #353673",
"c  c #753F42",
"v  c #443D6F",
"b  c #423F79",
"n  c #473F71",
"m  c #7A4241",
"M  c #784548",
"N  c #7D4C51",
"B  c #4A4175",
"V  c #47457F",
"C  c #4C477B",
"Z  c #534C78",
"A  c #A32F2F",
"S  c #A53133",
"D  c #AC3232",
"F  c #B63636",
"G  c #BB3737",
"H  c #B93837",
"J  c #B53B3C",
"K  c #BB3939",
"L  c #C03737",
"P  c #C23938",
"I  c #824E3F",
"U  c #CA403B",
"Y  c #BD3F40",
"T  c #C03E40",
"R  c #824945",
"E  c #864E48",
"W  c #894F49",
"Q  c #814744",
"!  c #865143",
"~  c #8A514B",
"^  c #8C5746",
"/  c #BE4447",
"(  c #BE4549",
")  c #BE4A4F",
"_  c #B87C64",
"`  c #C34A4C",
"'  c #C64746",
"]  c #C14E52",
"[  c #E65F44",
"{  c #EA5F45",
"}  c #E96145",
"|  c #F26346",
" . c #F86848",
".. c #F66748",
"X. c #F46C51",
"o. c #C17D62",
"O. c #9C812F",
"+. c #A38533",
"@. c #A48832",
"#. c #AD8A3B",
"$. c #A88836",
"%. c #B18E38",
"&. c #B39139",
"*. c #BA9A3B",
"=. c #C0A03C",
"-. c #BD9B43",
";. c #C29F43",
":. c #DFBE51",
">. c #D3B84B",
",. c #C18064",
"<. c #CC8669",
"1. c #CE896B",
"2. c #C3836E",
"3. c #D28D6E",
"4. c #C78671",
"5. c #C88771",
"6. c #D69172",
"7. c #DA9372",
"8. c #DEC24F",
"9. c #ECC956",
"0. c #E8C655",
"q. c #F2D255",
"w. c #444482",
"e. c #5F88A4",
"r. c #6088A3",
"t. c #6590AD",
"y. c #A59CB7",
"u. c #B29EB9",
"i. c #A8A2BF",
"p. c #B2A3BF",
"a. c #DAAB8C",
"s. c #E5AC83",
"d. c #E8AF85",
"f. c #EAB286",
"g. c #E3B28E",
"h. c #EDB489",
"j. c #F1BC87",
"k. c #F5BC8D",
"l. c #F9C191",
"z. c #A3A4C7",
"x. c #AAA4C0",
"c. c #A3A4C8",
"v. c #A8A8C7",
"b. c #B3A5C1",
"n. c #B1ABC9",
"m. c #B7B0CD",
"M. c #B2B3D2",
"N. c #CECEDD",
"B. c #CAC7D4",
"V. c #D9CBD8",
"C. c #E5CFDA",
"Z. c #DCDBEA",
"A. c #DAD3E1",
"S. c #E3DEED",
"D. c #E4D5E3",
"F. c #E9E2EF",
"G. c #E4E3F5",
"H. c #E9E9F9",
"J. c None",
/* pixels */
"J.J.J.J.J.J.J.J.J.J.J.J.J.J.J.J.J.J.J.J.J.J.J.J.J.J.J.J.J.J.J.J.J.J.J.J.J.J.J.J.J.J.J.J.J.J.J.J.J.J.J.J.J.J.J.J.J.J.J.J.J.J.J.J.",
"J.J.J.J.J.J.J.J.J.J.J.J.J.J.J.J.J.J.J.J.J.J.J.J.J.J.J.J.J.J.J.J.J.J.J.J.J.J.J.J.J.J.J.J.J.J.J.J.J.J.J.J.J.J.J.J.J.J.J.J.J.J.J.J.",
"J.J.J.J.J.J.J.J.J.J.J.J.J.J.J.J.J.J.J.J.J.J.J.J.J.J.J.J.J.J.J.J.J.J.J.J.J.J.J.J.J.J.J.J.J.J.J.J.J.J.J.J.J.J.J.J.J.J.J.J.J.J.J.J.",
"J.J.J.J.J.J.J.J.J.J.J.J.J.J.J.J.J.J.J.J.J.J.J.J.J.J.J.J.J.J.J.J.J.J.J.J.J.J.J.J.J.J.J.J.J.J.J.J.J.J.J.J.J.J.J.J.J.J.J.J.J.J.J.J.",
"J.J.J.J.J.J.J.J.J.J.J.J.J.J.J.J.J.J.J.J.J.J.J.J.J.J.J.J.J.J.J.J.J.J.J.J.J.J.J.J.J.J.J.J.J.J.J.J.J.J.J.J.J.J.J.J.J.J.J.J.J.J.J.J.",
"J.J.J.J.J.J.J.J.J.J.J.J.J.J.J.J.J.J.J.J.J.J.J.J.J.J.J.J.J.J.J.J.J.J.J.J.J.J.J.J.J.J.J.J.J.J.J.J.J.J.J.J.J.J.J.J.J.J.J.J.J.J.J.J.",
"J.J.J.J.J.J.J.J.J.J.J.J.J.J.J.J.J.J.J.J.J.J.J.J.J.J.J.J.J.J.J.J.J.J.J.J.J.J.J.J.J.J.J.J.J.J.J.J.J.J.J.J.J.J.J.J.J.J.J.J.J.J.J.J.",
"J.J.J.J.J.J.J.J.J.J.J.J.J.J.J.J.J.J.J.J.J.J.J.J.J.J.J.J.J.J.J.J.J.J.J.J.J.J.J.J.J.J.J.J.J.J.J.J.J.J.J.J.J.J.J.J.J.J.J.J.J.J.J.J.",
"J.J.J.J.J.J.J.J.J.J.J.J.J.J.J.J.J.J.J.J.J.J.J.J.J.J.J.J.J.J.J.J.J.J.J.J.J.J.J.J.J.J.J.J.J.J.J.J.J.J.J.J.J.J.J.J.J.J.J.J.J.J.J.J.",
"J.J.J.J.J.J.J.J.J.J.J.J.J.J.J.J.J.J.J.J.J.J.J.J.J.J.J.J.J.J.J.J.J.J.J.J.J.J.J.J.J.J.J.J.J.J.J.J.J.J.J.J.J.J.J.J.J.J.J.J.J.J.J.J.",
"J.J.J.J.J.J.J.J.J.J.J.J.J.J.J.J.J.J.J.J.J.J.J.J.J.J.J.J.J.J.J.J.J.J.J.J.J.J.J.J.J.J.J.J.J.J.J.J.J.J.J.J.J.J.J.J.J.J.J.J.J.J.J.J.",
"J.J.J.J.J.J.J.J.J.J.J.J.J.J.J.J.J.J.J.J.J.J.J.J.J.J.J.J.J.J.J.J.J.J.J.J.J.J.J.J.J.J.J.J.J.J.J.J.J.J.J.J.J.J.J.J.J.J.J.J.J.J.J.J.",
"J.J.J.J.J.J.J.J.J.J.J.J.J.J.J.J.J.J.J.J.J.J.J.J.J.J.J.J.J.J.J.J.J.J.J.J.J.J.J.J.J.J.J.J.J.J.J.J.J.J.J.J.J.J.J.J.J.J.J.J.J.J.J.J.",
"J.J.J.J.J.J.J.J.J.J.J.J.J.J.J.J.J.J.J.J.J.J.J.J.J.J.J.J.J.J.J.J.J.J.J.J.J.J.J.J.J.J.J.J.J.J.J.J.J.J.J.J.J.J.J.J.J.J.J.J.J.J.J.J.",
"J.J.J.J.J.J.J.J.J.J.J.J.J.J.J.J.J.J.J.J.J.J.J.J.J.J.J.J.J.J.J.J.J.J.J.J.J.J.J.J.J.J.J.J.J.J.J.J.J.J.J.J.J.J.J.J.J.J.J.J.J.J.J.J.",
"J.J.J.J.J.J.J.J.J.J.J.J.J.J.J.J.J.J.J.J.J.J.J.J.J.J.J.J.J.J.J.J.J.J.J.J.J.J.J.J.J.J.J.J.J.J.J.J.J.J.J.J.J.J.J.J.J.J.J.J.J.J.J.J.",
"J.J.J.J.J.J.J.J.J.J.J.J.J.J.J.J.J.J.J.J.J.J.J.J.J.J.J.J.J.J.J.J.J.J.J.J.J.J.J.J.J.J.J.J.J.J.J.J.J.J.J.J.J.J.J.J.J.J.J.J.J.J.J.J.",
"J.J.J.J.J.J.J.J.J.J.J.J.J.J.J.J.J.J.J.J.J.J.J.J.J.J.J.J.J.J.J.J.J.J.J.J.J.J.J.J.J.J.J.J.J.J.J.J.J.J.J.J.J.J.J.J.J.J.J.J.J.J.J.J.",
"J.J.J.J.J.J.J.J.J.J.J.J.J.J.J.J.J.J.J.J.J.J.J.J.J.J.J.J.J.J.J.J.J.J.J.J.J.J.J.J.J.J.J.J.J.J.J.J.J.J.J.J.J.J.J.J.J.J.J.J.J.J.J.J.",
"J.J.J.J.J.J.J.J.J.J.J.J.J.J.J.J.J.J.J.J.J.J.J.J.J.J.J.J.J.J.J.J.J.J.J.J.J.J.J.J.J.J.J.J.J.J.J.J.J.J.J.J.J.J.J.J.J.J.J.J.J.J.J.J.",
"J.J.J.J.J.J.J.J.J.J.J.J.J.J.J.J.J.J.J.J.J.J.J.J.J.J.J.J.J.J.J.J.J.J.J.J.J.J.J.J.J.J.J.J.J.J.J.J.J.J.J.J.J.J.J.J.J.J.J.J.J.J.J.J.",
"J.J.J.J.J.J.J.J.J.J.J.J.J.J.J.J.J.J.J.J.J.J.J.J.J.J.J.J.J.J.J.J.J.J.J.J.J.J.J.J.J.J.J.J.J.J.J.J.J.J.J.J.J.J.J.J.J.J.J.J.J.J.J.J.",
"J.J.J.J.J.J.J.J.J.J.J.J.J.J.J.J.J.J.J.J.J.J.J.J.J.J.J.J.J.J.J.J.J.J.J.J.J.J.J.J.J.J.J.J.J.J.J.J.J.J.J.J.J.J.J.J.J.J.J.J.J.J.J.J.",
"J.J.J.J.J.J.J.J.J.J.J.J.J.J.J.J.J.J.J.J.J.J.J.J.J.J.J.J.J.J.J.J.J.J.J.J.J.J.J.J.J.J.J.J.J.J.J.J.J.J.J.J.J.J.J.J.J.J.J.J.J.J.J.J.",
"J.J.J.J.J.J.J.J.J.J.J.J.J.J.J.J.J.J.J.J.J.J.J.J.J.J.J.J.J.J.J.J.J.J.J.J.J.J.J.J.J.J.J.J.J.J.J.J.J.J.J.J.J.J.J.J.J.J.J.J.J.J.J.J.",
"J.J.J.J.J.J.J.J.J.J.J.J.J.J.J.J.J.J.J.J.J.J.J.J.J.J.J.J.J.J.J.J.J.J.J.J.J.J.J.J.J.J.J.J.J.J.J.J.J.J.J.J.J.J.J.J.J.J.J.J.J.J.J.J.",
"J.J.J.J.J.J.J.J.J.J.J.J.J.J.J.J.4 4 4 4 4 4 4 4 4 4 4 4 4 4 4 4 4 4 4 4 3 3 3 3 4 4 4 4 4 4 4 4 J.J.J.J.J.J.J.J.J.J.J.J.J.J.J.J.",
"J.J.J.J.J.J.J.J.J.J.J.J.J.J.J.J.7 7 7 7 8 8 8 8 8 8 8 8 8 8 8 8 8 8 8 8 8 8 8 8 8 8 8 8 7 7 7 7 J.J.J.J.J.J.J.J.J.J.J.J.J.J.J.J.",
"J.J.J.J.J.J.J.J.J.J.J.J.4 4 3 6 F F H H } } } } { } } } } } } } } } } } } } } } } } } [ H H F F 6 4 4 4 J.J.J.J.J.J.J.J.J.J.J.J.",
"J.J.J.J.J.J.J.J.J.J.J.J.7 7 7 8 P P P U .. . . . . . . . . . . . . . . . . . . . . . ...U P P P 6 4 4 6 J.J.J.J.J.J.J.J.J.J.J.J.",
"J.J.J.J.J.J.J.J.4 4 4 6 F F F G | | | |  . . . . ... . . . . . . . . . . . . . . . . . .......[ 7 4 4 4 J.J.J.J.J.J.J.J.J.J.J.J.",
"J.J.J.J.J.J.J.J.4 4 4 7 ` ` ` `  . . . . . . . . . . . . . . . . . . . . . . . . . . . ..... ...8 7 7 7 J.J.J.J.J.J.J.J.J.J.J.J.",
"J.J.J.J.2 2 2 2 4 4 3 q C.D.D.C.X. . . . . . . . . . . . . . . . . . . . . . . . . . . . . . ...H F F F 7 3 4 6 J.J.J.J.J.J.J.J.",
"J.J.J.J.u c u u 6 4 4 q Z.H.H.F.X.| | |  . . . . . . . . . ... . . . . . . . . . . . . .| | | ..P P P G 5 4 4 4 J.J.J.J.J.J.J.J.",
"      O B.A.A.V.q 4 4 q S.H.H.S.' P P '  . . . ... ... . . . . . . . . . . . . . . . . .P U P P L P P F 7 4 4 4 J.J.J.J.J.J.J.J.",
"      * S.H.H.S.p 7 7 t Z.G.G.D.T P G P | | | ..| | | | | | ....| | } | | | | | | | | | P P P P P L P G 5 6 4 3 J.J.J.J.J.J.J.J.",
"      O Z.H.H.S.Y F F Y m.M.M.m.T P P P P P U P P P P U P P U P P U P P P P U P P P U P G P P P L P P F 7 5 3 6 J.J.J.J.J.J.J.J.",
"      O Z.H.H.G.] / / ) u.p.b.p.P P L P L K P P P P P P P G P P P P P L P P P P L L P P P L L P F F F F 2 1 1 1 J.J.J.J.J.J.J.J.",
"      O Z.H.H.G.b.u.b.u.) / / / L L L L L P P L P G P P L P P L P P L P L P P P P P L P L P K K 8 7 7 5 . . . . J.J.J.J.J.J.J.J.",
"      O B.N.N.N.M.M.M.n.) / / / / / / ` P P G P L P L P P L L P P P P G P P P K F F F F F F F J 5 5 5 3         J.J.J.J.J.J.J.J.",
"J.J.J.J.: : : < c.M.M.M.b.b.p.b.b.b.b.u.T G L P L L L L L L L L P P L P L L L G 7 7 7 7 7 7 7 7 u u u u         J.J.J.J.J.J.J.J.",
"J.J.J.J.      + y.x.x.x.c.c.z.z.i.x.x.y.Y F F F F F G F F F F F F F F F F F F F 6 5 5 5 4 4 5 5 u m s e .       J.J.J.J.J.J.J.J.",
"J.J.J.J.J.J.J.J.E N E N w.w.w.V c w w w 7 7 7 7 7 7 7 7 7 7 7 7 5 7 7 7 7 7 7 7 u u m u u u u u m u c u .       J.J.J.J.J.J.J.J.",
"J.J.J.J.J.J.J.J.u c c c B B B n q 7 q 7 1 1 1 1 9 y 8 8 r r r 9 q 5 5 5 y y t p R R R R s c m m e e e 0 .       J.J.J.J.J.J.J.J.",
"J.J.J.J.J.J.J.J.s u m M 2.4.4.1.<.1.<.o.# . . # o.<.<.<.<.<.1.o.c u u s s.d.h.d.1.1.<.<.m i m u # . . . J.J.J.J.J.J.J.J.J.J.J.J.",
"J.J.J.J.J.J.J.J.c m m m <.1.1.1.7.7.7.3.$ . . $ 3.7.7.7.7.7.7.3.W R Q W k.k.l.k.7.7.7.3.u e e e .       J.J.J.J.J.J.J.J.J.J.J.J.",
"J.J.J.J.J.J.J.J.J.J.J.J.M R R W h.k.k.h.m e e a h.k.k.k.7.3.7.3.1.<.1.1.k.k.l.k.7.7.6.1.# X . . J.J.J.J.J.J.J.J.J.J.J.J.J.J.J.J.",
"J.J.J.J.J.J.J.J.J.J.J.J.s s s M s.h.g.s.E R R E h.k.k.h.7.7.7.7.7.7.7.7.f.h.h.f.1.1.<.,.& % % % J.J.J.J.J.J.J.J.J.J.J.J.J.J.J.J.",
"J.J.J.J.J.J.J.J.J.J.J.J.J.J.J.J.E E E ~ <.<.1.1.7.7.7.7.7.7.7.7.6.7.7.3.~ M R N R R R R @.@.@.^ X       J.J.J.J.J.J.J.J.J.J.J.J.",
"J.J.J.J.J.J.J.J.J.J.J.J.J.J.J.J.c m u m <.1.1.<.<.1.1.3.,.o._ ,.4.4.4.2.M M m m d d d I =.=.=.*., & & & J.J.J.J.J.J.J.J.J.J.J.J.",
"J.J.J.J.J.J.J.J.J.J.J.J.J.J.J.J.5 5 5 6 Q R R Q Q I R M $ $ $ > n B C B k k k v $.%.&.*.q.q.q.q.8.8.8.>.X       J.J.J.J.J.J.J.J.",
"J.J.J.J.J.J.J.J.J.J.J.J.J.J.J.J.4 4 4 3 i i i Q Q Q Q u O o o = x l x x C C C Z -.-.=.=.8.q.9.0.9.9.9.8.X       J.J.J.J.J.J.J.J.",
"J.J.J.J.J.J.J.J.J.J.J.J.J.J.J.J.3 3 3 3 F K G G F G G J j h h h x z z B a.g.g.g.j.j.j.f.^ ! ! ! ! ! ! d .       J.J.J.J.J.J.J.J.",
"J.J.J.J.J.J.J.J.J.J.J.J.J.J.J.J.1 1 2 2 S D D D L L L F j h h j z z z k g.l.l.l.k.k.k.h.M m s s d d d s .       J.J.J.J.J.J.J.J.",
"J.J.J.J.J.J.J.J.J.J.J.J.J.J.J.J.. . . . @ @ @ $ F L L G = o o = x z z V 6.7.7.7.7.7.7.7.m m m m #.&.%.$.X       J.J.J.J.J.J.J.J.",
"J.J.J.J.J.J.J.J.J.J.J.J.J.J.J.J.o o o o       . A D D A > * * ; g h h j ,.,.,.,.1.<.<.<.m s m s +.@.@.O.X       J.J.J.J.J.J.J.J.",
"J.J.J.J.J.J.J.J.J.J.J.J.      + g h h f         @ @ @ $ e.t.t.e.- o o o $ & $ & M R R R m m m c & % % % J.J.J.J.J.J.J.J.J.J.J.J.",
"J.J.J.J.J.J.J.J.J.J.J.J.        f h h g # @ @ @ o o o * e.t.t.e.+               0 e e e e e e 0 .       J.J.J.J.J.J.J.J.J.J.J.J.",
"J.J.J.J.J.J.J.J.J.J.J.J.        o o o O S D D S j h h f ; - - -                 . . . . X . @ . J.J.J.J.J.J.J.J.J.J.J.J.J.J.J.J.",
"J.J.J.J.J.J.J.J.J.J.J.J.              . A D D S j h h h                                         J.J.J.J.J.J.J.J.J.J.J.J.J.J.J.J.",
"J.J.J.J.J.J.J.J.J.J.J.J.J.J.J.J.        @ @ @ @ o o o o J.J.J.J.J.J.J.J.J.J.J.J.J.J.J.J.J.J.J.J.J.J.J.J.J.J.J.J.J.J.J.J.J.J.J.J.",
"J.J.J.J.J.J.J.J.J.J.J.J.J.J.J.J.                        J.J.J.J.J.J.J.J.J.J.J.J.J.J.J.J.J.J.J.J.J.J.J.J.J.J.J.J.J.J.J.J.J.J.J.J.",
"J.J.J.J.J.J.J.J.J.J.J.J.J.J.J.J.J.J.J.J.J.J.J.J.J.J.J.J.J.J.J.J.J.J.J.J.J.J.J.J.J.J.J.J.J.J.J.J.J.J.J.J.J.J.J.J.J.J.J.J.J.J.J.J.",
"J.J.J.J.J.J.J.J.J.J.J.J.J.J.J.J.J.J.J.J.J.J.J.J.J.J.J.J.J.J.J.J.J.J.J.J.J.J.J.J.J.J.J.J.J.J.J.J.J.J.J.J.J.J.J.J.J.J.J.J.J.J.J.J."
};
