/* XPM */
static char *result[] = {
/* columns rows colors chars-per-pixel */
"64 64 159 2 ",
"   c #000000",
".  c #0C0605",
"X  c #0C0A04",
"o  c #06060D",
"O  c #0D0B0E",
"+  c #050809",
"@  c #140606",
"#  c #150C0B",
"$  c #1A0D0D",
"%  c #141006",
"&  c #1B140B",
"*  c #0A0C15",
"=  c #070812",
"-  c #0C1114",
";  c #0E131A",
":  c #19191B",
">  c #181314",
",  c #241F0C",
"<  c #212125",
"1  c #5D2424",
"2  c #652626",
"3  c #672728",
"4  c #672828",
"5  c #692929",
"6  c #6C2727",
"7  c #722A2A",
"8  c #782F2B",
"9  c #73322F",
"0  c #663636",
"q  c #6F3233",
"w  c #6F363B",
"e  c #6B3939",
"r  c #743330",
"t  c #783435",
"y  c #773833",
"u  c #753D3D",
"i  c #7C3E3F",
"p  c #783934",
"a  c #74413C",
"s  c #7A423F",
"d  c #7E493F",
"f  c #2F2F66",
"g  c #303066",
"h  c #32326C",
"j  c #3A3369",
"k  c #3C3874",
"l  c #373778",
"z  c #383878",
"x  c #353673",
"c  c #753F42",
"v  c #443D6F",
"b  c #423F79",
"n  c #473F71",
"m  c #7A4241",
"M  c #784548",
"N  c #7D4C51",
"B  c #4A4175",
"V  c #47457F",
"C  c #4C477B",
"Z  c #534C78",
"A  c #A32F2F",
"S  c #A53133",
"D  c #AC3232",
"F  c #B63636",
"G  c #BB3737",
"H  c #B93837",
"J  c #B53B3C",
"K  c #BB3939",
"L  c #C03737",
"P  c #C23938",
"I  c #824E3F",
"U  c #CA403B",
"Y  c #BD3F40",
"T  c #C03E40",
"R  c #824945",
"E  c #864E48",
"W  c #894F49",
"Q  c #814744",
"!  c #865143",
"~  c #8A514B",
"^  c #8C5746",
"/  c #BE4447",
"(  c #BE4549",
")  c #BE4A4F",
"_  c #B87C64",
"`  c #C34A4C",
"'  c #C64746",
"]  c #C14E52",
"[  c #E65F44",
"{  c #EA5F45",
"}  c #E96145",
"|  c #F26346",
" . c #F86848",
".. c #F66748",
"X. c #F46C51",
"o. c #C17D62",
"O. c #9C812F",
"+. c #A38533",
"@. c #A48832",
"#. c #AD8A3B",
"$. c #A88836",
"%. c #B18E38",
"&. c #B39139",
"*. c #BA9A3B",
"=. c #C0A03C",
"-. c #BD9B43",
";. c #C29F43",
":. c #DFBE51",
">. c #D3B84B",
",. c #C18064",
"<. c #CC8669",
"1. c #CE896B",
"2. c #C3836E",
"3. c #D28D6E",
"4. c #C78671",
"5. c #C88771",
"6. c #D69172",
"7. c #DA9372",
"8. c #DEC24F",
"9. c #ECC956",
"0. c #E8C655",
"q. c #F2D255",
"w. c #444482",
"e. c #5F88A4",
"r. c #6088A3",
"t. c #6590AD",
"y. c #A59CB7",
"u. c #B29EB9",
"i. c #A8A2BF",
"p. c #B2A3BF",
"a. c #DAAB8C",
"s. c #E5AC83",
"d. c #E8AF85",
"f. c #EAB286",
"g. c #E3B28E",
"h. c #EDB489",
"j. c #F1BC87",
"k. c #F5BC8D",
"l. c #F9C191",
"z. c #A3A4C7",
"x. c #AAA4C0",
"c. c #A3A4C8",
"v. c #A8A8C7",
"b. c #B3A5C1",
"n. c #B1ABC9",
"m. c #B7B0CD",
"M. c #B2B3D2",
"N. c #CECEDD",
"B. c #CAC7D4",
"V. c #D9CBD8",
"C. c #E5CFDA",
"Z. c #DCDBEA",
"A. c #DAD3E1",
"S. c #E3DEED",
"D. c #E4D5E3",
"F. c #E9E2EF",
"G. c #E4E3F5",
"H. c #E9E9F9",
"J. c None",
/* pixels */
"J.J.J.J.J.J.J.J.J.J.J.J.J.J.J.J.J.J.J.J.J.J.J.J.J.J.J.J.J.J.J.J.J.J.J.J.J.J.J.J.J.J.J.J.J.J.J.J.J.J.J.J.J.J.J.J.J.J.J.J.J.J.J.J.",
"J.J.J.J.J.J.J.J.J.J.J.J.J.J.J.J.J.J.J.J.J.J.J.J.J.J.J.J.J.J.J.J.J.J.J.J.J.J.J.J.J.J.J.J.J.J.J.J.J.J.J.J.J.J.J.J.J.J.J.J.J.J.J.J.",
"J.J.J.J.J.J.J.J.J.J.J.J.J.J.J.J.J.J.J.J.J.J.J.J.J.J.J.J.J.J.J.J.J.J.J.J.J.J.J.J.J.J.J.J.J.J.J.J.J.J.J.J.J.J.J.J.J.J.J.J.J.J.J.J.",
"J.J.J.J.J.J.J.J.J.J.J.J.J.J.J.J.J.J.J.J.J.J.J.J.J.J.J.J.J.J.J.J.J.J.J.J.J.J.J.J.J.J.J.J.J.J.J.J.J.J.J.J.J.J.J.J.J.J.J.J.J.J.J.J.",
"J.J.J.J.J.J.J.J.J.J.J.J.J.J.J.J.J.J.J.J.J.J.J.J.J.J.J.J.J.J.J.J.J.J.J.J.J.J.J.J.J.J.J.J.J.J.J.J.J.J.J.J.J.J.J.J.J.J.J.J.J.J.J.J.",
"J.J.J.J.J.J.J.J.J.J.J.J.J.J.J.J.J.J.J.J.J.J.J.J.J.J.J.J.J.J.J.J.J.J.J.J.J.J.J.J.J.J.J.J.J.J.J.J.J.J.J.J.J.J.J.J.J.J.J.J.J.J.J.J.",
"J.J.J.J.J.J.J.J.J.J.J.J.J.J.J.J.J.J.J.J.J.J.J.J.J.J.J.J.J.J.J.J.J.J.J.J.J.J.J.J.J.J.J.J.J.J.J.J.J.J.J.J.J.J.J.J.J.J.J.J.J.J.J.J.",
"J.J.J.J.J.J.J.J.J.J.J.J.J.J.J.J.J.J.J.J.J.J.J.J.J.J.J.J.J.J.J.J.J.J.J.J.J.J.J.J.J.J.J.J.J.J.J.J.J.J.J.J.J.J.J.J.J.J.J.J.J.J.J.J.",
"J.J.J.J.J.J.J.J.J.J.J.J.J.J.J.J.J.J.J.J.J.J.J.J.J.J.J.J.J.J.J.J.J.J.J.J.J.J.J.J.J.J.J.J.J.J.J.J.J.J.J.J.J.J.J.J.J.J.J.J.J.J.J.J.",
"J.J.J.J.J.J.J.J.J.J.J.J.J.J.J.J.J.J.J.J.J.J.J.J.J.J.J.J.J.J.J.J.J.J.J.J.J.J.J.J.J.J.J.J.J.J.J.J.J.J.J.J.J.J.J.J.J.J.J.J.J.J.J.J.",
"J.J.J.J.J.J.J.J.J.J.J.J.J.J.J.J.J.J.J.J.J.J.J.J.J.J.J.J.J.J.J.J.J.J.J.J.J.J.J.J.J.J.J.J.J.J.J.J.J.J.J.J.J.J.J.J.J.J.J.J.J.J.J.J.",
"J.J.J.J.J.J.J.J.J.J.J.J.J.J.J.J.J.J.J.J.J.J.J.J.J.J.J.J.J.J.J.J.J.J.J.J.J.J.J.J.J.J.J.J.J.J.J.J.J.J.J.J.J.J.J.J.J.J.J.J.J.J.J.J.",
"J.J.J.J.J.J.J.J.J.J.J.J.J.J.J.J.J.J.J.J.J.J.J.J.J.J.J.J.J.J.J.J.J.J.J.J.J.J.J.J.J.J.J.J.J.J.J.J.J.J.J.J.J.J.J.J.J.J.J.J.J.J.J.J.",
"J.J.J.J.J.J.J.J.J.J.J.J.J.J.J.J.J.J.J.J.J.J.J.J.J.J.J.J.J.J.J.J.J.J.J.J.J.J.J.J.J.J.J.J.J.J.J.J.J.J.J.J.J.J.J.J.J.J.J.J.J.J.J.J.",
"J.J.J.J.J.J.J.J.J.J.J.J.J.J.J.J.J.J.J.J.J.J.J.J.J.J.J.J.J.J.J.J.J.J.J.J.J.J.J.J.J.J.J.J.J.J.J.J.J.J.J.J.J.J.J.J.J.J.J.J.J.J.J.J.",
"J.J.J.J.J.J.J.J.J.J.J.J.J.J.J.J.J.J.J.J.J.J.J.J.J.J.J.J.J.J.J.J.J.J.J.J.J.J.J.J.J.J.J.J.J.J.J.J.J.J.J.J.J.J.J.J.J.J.J.J.J.J.J.J.",
"J.J.J.J.J.J.J.J.J.J.J.J.J.J.J.J.J.J.J.J.J.J.J.J.J.J.J.J.J.J.J.J.J.J.J.J.J.J.J.J.J.J.J.J.J.J.J.J.J.J.J.J.J.J.J.J.J.J.J.J.J.J.J.J.",
"J.J.J.J.J.J.J.J.J.J.J.J.J.J.J.J.J.J.J.J.J.J.J.J.J.J.J.J.J.J.J.J.J.J.J.J.J.J.J.J.J.J.J.J.J.J.J.J.J.J.J.J.J.J.J.J.J.J.J.J.J.J.J.J.",
"J.J.J.J.J.J.J.J.J.J.J.J.J.J.J.J.J.J.J.J.J.J.J.J.J.J.J.J.J.J.J.J.J.J.J.J.J.J.J.J.J.J.J.J.J.J.J.J.J.J.J.J.J.J.J.J.J.J.J.J.J.J.J.J.",
"J.J.J.J.J.J.J.J.J.J.J.J.J.J.J.J.J.J.J.J.J.J.J.J.J.J.J.J.J.J.J.J.J.J.J.J.J.J.J.J.J.J.J.J.J.J.J.J.J.J.J.J.J.J.J.J.J.J.J.J.J.J.J.J.",
"J.J.J.J.J.J.J.J.J.J.J.J.J.J.J.J.J.J.J.J.J.J.J.J.J.J.J.J.J.J.J.J.J.J.J.J.J.J.J.J.J.J.J.J.J.J.J.J.J.J.J.J.J.J.J.J.J.J.J.J.J.J.J.J.",
"J.J.J.J.J.J.J.J.J.J.J.J.J.J.J.J.J.J.J.J.J.J.J.J.J.J.J.J.J.J.J.J.J.J.J.J.J.J.J.J.J.J.J.J.J.J.J.J.J.J.J.J.J.J.J.J.J.J.J.J.J.J.J.J.",
"J.J.J.J.J.J.J.J.J.J.J.J.J.J.J.J.J.J.J.J.J.J.J.J.J.J.J.J.J.J.J.J.J.J.J.J.J.J.J.J.J.J.J.J.J.J.J.J.J.J.J.J.J.J.J.J.J.J.J.J.J.J.J.J.",
"J.J.J.J.J.J.J.J.J.J.J.J.J.J.J.J.J.J.J.J.J.J.J.J.J.J.J.J.J.J.J.J.J.J.J.J.J.J.J.J.J.J.J.J.J.J.J.J.J.J.J.J.J.J.J.J.J.J.J.J.J.J.J.J.",
"J.J.J.J.J.J.J.J.J.J.J.J.J.J.J.J.J.J.J.J.J.J.J.J.J.J.J.J.J.J.J.J.J.J.J.J.J.J.J.J.J.J.J.J.J.J.J.J.J.J.J.J.J.J.J.J.J.J.J.J.J.J.J.J.",
"J.J.J.J.J.J.J.J.J.J.J.J.J.J.J.J.J.J.J.J.J.J.J.J.J.J.J.J.J.J.J.J.J.J.J.J.J.J.J.J.J.J.J.J.J.J.J.J.J.J.J.J.J.J.J.J.J.J.J.J.J.J.J.J.",
"J.J.J.J.J.J.J.J.J.J.J.J.J.J.J.J.4 4 4 4 3 3 3 4 3 4 3 3 3 3 3 3 3 3 3 3 3 3 3 3 3 3 3 3 4 4 4 4 J.J.J.J.J.J.J.J.J.J.J.J.J.J.J.J.",
"J.J.J.J.J.J.J.J.J.J.J.J.J.J.J.J.7 7 7 7 8 8 8 8 8 8 8 8 8 8 8 9 8 8 8 8 8 8 8 8 8 8 8 8 7 7 7 7 J.J.J.J.J.J.J.J.J.J.J.J.J.J.J.J.",
"J.J.J.J.J.J.J.J.J.J.J.J.4 4 4 7 F F H K } } } } } } } } } } } } } } } } } } } } } } } [ K H F F 6 4 4 4 J.J.J.J.J.J.J.J.J.J.J.J.",
"J.J.J.J.J.J.J.J.J.J.J.J.4 4 4 6 P P P U .. . . . . . . . . . . . . . . . . . . . . . ...U P P P 8 7 7 7 J.J.J.J.J.J.J.J.J.J.J.J.",
"J.J.J.J.J.J.J.J.J.J.J.J.4 4 4 7 } | | | .. . . . . . . . . . . . . . . . . . . . . . . .| | | | H F F F 6 4 4 4 J.J.J.J.J.J.J.J.",
"J.J.J.J.J.J.J.J.J.J.J.J.7 7 7 8 .. . . ... . . . . . . . . . . . . . . . . . . . . . . . . . . .` ` ` ` 7 4 4 4 J.J.J.J.J.J.J.J.",
"J.J.J.J.J.J.J.J.4 6 4 5 F F F K  . . . . . . . . ... . . . . . . . . . . . . . . . . . . . . .X.C.D.D.V.q 3 3 4 3 3 2 2 J.J.J.J.",
"J.J.J.J.J.J.J.J.4 4 4 7 H P P P | | | |  . . . . . . . . . . . . . . . . . . . . . . . .| | .. .F.H.H.S.q 3 3 5 u u u u J.J.J.J.",
"J.J.J.J.J.J.J.J.4 6 4 6 H L L P P P P ' .. . . . . ... . . . . . . . . ..... . . . . . .P P ' ' S.H.H.S.q 3 2 q V.A.A.N.O       ",
"J.J.J.J.J.J.J.J.4 5 4 6 G L L P P P G P | | .. .| | | | | | | ..} ..| | | | | | | | | | P P P T D.G.G.Z.t 7 7 t S.H.H.Z.O       ",
"J.J.J.J.J.J.J.J.4 4 4 5 K G P P L L L L P P P P P P P U P P P U U P P P P P U P P P U P P L P T M.M.M.m.Y F F Y F.H.H.Z.O       ",
"J.J.J.J.J.J.J.J.2 1 1 3 F H F F P L L L P P P P P P P P P P P P P P P P P P P P P L P P L P G T u.b.b.u.) / ' ] S.H.H.Z.O       ",
"J.J.J.J.J.J.J.J.. . . @ 6 7 7 7 G L P P P L P P L P P P P L L P P P P L P P P P P K P G L L G L ' / / ) u.x.b.b.G.H.H.Z.O       ",
"J.J.J.J.J.J.J.J.        4 5 4 6 F F F G F F F F P L K P L K P L P P L P G P G P L P L P ( ( ( / / / / ) n.M.M.M.N.N.N.B.O       ",
"J.J.J.J.J.J.J.J.        u u i u 7 7 7 7 7 7 7 8 F P L P L P L P L P L P L L L P L P P T u.b.b.b.p.b.b.x.m.M.M.v.< : : : J.J.J.J.",
"J.J.J.J.J.J.J.J.      . u u c c 5 5 4 4 5 5 5 5 F F F F F F F F F F F F F H F F F F F Y y.i.i.i.z.c.c.z.x.i.i.y.+       J.J.J.J.",
"J.J.J.J.J.J.J.J.      . u m m a c u u u u i c u 7 7 7 7 7 7 7 6 7 7 7 7 7 7 7 7 7 7 7 7 w w e c V w.w.V N N N N J.J.J.J.J.J.J.J.",
"J.J.J.J.J.J.J.J.      . 0 e e e m c m m Q R R R p y r y 5 5 5 q 9 r r r r r 8 8 1 1 1 1 r r 7 r n B B B m c u i J.J.J.J.J.J.J.J.",
"J.J.J.J.J.J.J.J.J.J.J.J.. . . # u i c m <.<.<.3.d.d.d.s.s u i s o.<.<.o.1.<.<.o.# . . # o.<.1.<.5.5.5.2.M s s s J.J.J.J.J.J.J.J.",
"J.J.J.J.J.J.J.J.J.J.J.J.      . 0 e e u 3.6.6.7.k.l.l.k.~ R R ! 3.7.7.3.7.7.7.3.# . + # 3.7.7.7.3.<.<.<.m m s c J.J.J.J.J.J.J.J.",
"J.J.J.J.J.J.J.J.J.J.J.J.J.J.J.J.. . . # <.7.7.7.k.l.l.k.3.<.<.<.6.7.3.7.k.k.k.h.u e e m h.k.k.h.E R R R J.J.J.J.J.J.J.J.J.J.J.J.",
"J.J.J.J.J.J.J.J.J.J.J.J.J.J.J.J.% % % , ,.1.<.1.f.f.f.d.7.7.7.6.7.7.7.7.k.k.k.h.~ R R E s.f.h.s.M m i c J.J.J.J.J.J.J.J.J.J.J.J.",
"J.J.J.J.J.J.J.J.J.J.J.J.      X O.+.@.+.R R R R E N R ~ 6.6.6.7.7.7.7.7.7.7.7.7.3.1.<.<.~ E E W J.J.J.J.J.J.J.J.J.J.J.J.J.J.J.J.",
"J.J.J.J.J.J.J.J.J.J.J.J.& & & , *.=.=.*.I d d m M c c M 2.4.4.4.,.o.o.,.3.1.1.1.<.1.<.<.s u u u J.J.J.J.J.J.J.J.J.J.J.J.J.J.J.J.",
"J.J.J.J.J.J.J.J.      X >.8.8.8.q.q.q.9.&.%.%.#.v k k k B B B B > $ $ $ M R Q Q Q R Q Q 5 5 5 4 J.J.J.J.J.J.J.J.J.J.J.J.J.J.J.J.",
"J.J.J.J.J.J.J.J.      . 8.9.9.9.9.9.9.0.;.=.-.-.Z C C C x l l x = o o O t Q Q c i Q Q m 6 4 3 3 J.J.J.J.J.J.J.J.J.J.J.J.J.J.J.J.",
"J.J.J.J.J.J.J.J.      . d ! ! ! ! ! ! ^ j.j.j.j.g.g.g.a.B l z z h h h j J F K K H F G F 6 3 3 3 J.J.J.J.J.J.J.J.J.J.J.J.J.J.J.J.",
"J.J.J.J.J.J.J.J.        a d d d u m m M h.k.k.k.k.k.l.g.b l z z h h h j K L P G D D D D 1 1 1 2 J.J.J.J.J.J.J.J.J.J.J.J.J.J.J.J.",
"J.J.J.J.J.J.J.J.      X $.&.&.#.m s m m 7.7.7.7.7.7.7.6.b l l x = o o # F L L F $ @ @ @ . . . . J.J.J.J.J.J.J.J.J.J.J.J.J.J.J.J.",
"J.J.J.J.J.J.J.J.      X O.@.@.@.s m s m <.1.<.3.,.,.,.,.j h h g ; - * > A D D A .       o o o o J.J.J.J.J.J.J.J.J.J.J.J.J.J.J.J.",
"J.J.J.J.J.J.J.J.J.J.J.J.% % % & m m m m M R R M & $ & # o o o * e.t.t.e.# @ @ @       + f h h f +       J.J.J.J.J.J.J.J.J.J.J.J.",
"J.J.J.J.J.J.J.J.J.J.J.J.        e e e e e e e 0               + e.t.t.e.* o o o @ @ @ $ f h h f +       J.J.J.J.J.J.J.J.J.J.J.J.",
"J.J.J.J.J.J.J.J.J.J.J.J.J.J.J.J.. . . . . . . .                 - - - ; f h h j S D D S O o o o         J.J.J.J.J.J.J.J.J.J.J.J.",
"J.J.J.J.J.J.J.J.J.J.J.J.J.J.J.J.                                      + f h h j S D D A .               J.J.J.J.J.J.J.J.J.J.J.J.",
"J.J.J.J.J.J.J.J.J.J.J.J.J.J.J.J.J.J.J.J.J.J.J.J.J.J.J.J.J.J.J.J.J.J.J.J.o o o o @ @ @ @         J.J.J.J.J.J.J.J.J.J.J.J.J.J.J.J.",
"J.J.J.J.J.J.J.J.J.J.J.J.J.J.J.J.J.J.J.J.J.J.J.J.J.J.J.J.J.J.J.J.J.J.J.J.                        J.J.J.J.J.J.J.J.J.J.J.J.J.J.J.J.",
"J.J.J.J.J.J.J.J.J.J.J.J.J.J.J.J.J.J.J.J.J.J.J.J.J.J.J.J.J.J.J.J.J.J.J.J.J.J.J.J.J.J.J.J.J.J.J.J.J.J.J.J.J.J.J.J.J.J.J.J.J.J.J.J.",
"J.J.J.J.J.J.J.J.J.J.J.J.J.J.J.J.J.J.J.J.J.J.J.J.J.J.J.J.J.J.J.J.J.J.J.J.J.J.J.J.J.J.J.J.J.J.J.J.J.J.J.J.J.J.J.J.J.J.J.J.J.J.J.J."
};
