/* XPM */
static char *result[] = {
/* columns rows colors chars-per-pixel */
"64 64 5 1 ",
"  c black",
". c #383818",
"X c #787040",
"o c #C8A860",
"O c None",
/* pixels */
"OOOOOOOOOOOOOOOOOOOOOOOOOOOOOOOOOOOOOOOOOOOOOOOOOOOOOOOOOOOOOOOO",
"OOOOOOOOOOOOOOOOOOOOOOOOOOOOOOOOOOOOOOOOOOOOOOOOOOOOOOOOOOOOOOOO",
"OOOOOOOOOOOOOOOOOOOOOOOOOOOOOOOOOOOOOOOOOOOOOOOOOOOOOOOOOOOOOOOO",
"OOOOOOOOOOOOOOOOOOOOOOOOOOOOOOOOOOOOOOOOOOOOOOOOOOOOOOOOOOOOOOOO",
"OOOOOOOOOOOOOOOOOOOOOOOO............OOOOOOOOOOOOOOOOOOOOOOOOOOOO",
"OOOOOOOOOOOOOOOOOOOOOOOO............OOOOOOOOOOOOOOOOOOOOOOOOOOOO",
"OOOOOOOOOOOOOOOOOOOOOOOO............OOOOOOOOOOOOOOOOOOOOOOOOOOOO",
"OOOOOOOOOOOOOOOOOOOOOOOO............OOOOOOOOOOOOOOOOOOOOOOOOOOOO",
"OOOOOOOOOOOOOOOO............oooooooo........OOOOOOOOOOOOOOOOOOOO",
"OOOOOOOOOOOOOOOO............oooooooo........OOOOOOOOOOOOOOOOOOOO",
"OOOOOOOOOOOOOOOO............oooooooo........OOOOOOOOOOOOOOOOOOOO",
"OOOOOOOOOOOOOOOO............oooooooo........OOOOOOOOOOOOOOOOOOOO",
"OOOOOOOOOOOO............ooooooooooooooooXXXX....OOOOOOOOOOOOOOOO",
"OOOOOOOOOOOO............ooooooooooooooooXXXX....OOOOOOOOOOOOOOOO",
"OOOOOOOOOOOO............ooooooooooooooooXXXX....OOOOOOOOOOOOOOOO",
"OOOOOOOOOOOO............ooooooooooooooooXXXX....OOOOOOOOOOOOOOOO",
"OOOOOOOO....XXXXoooo....ooooooooooooXXXXXXXX....    OOOOOOOOOOOO",
"OOOOOOOO....XXXXoooo....ooooooooooooXXXXXXXX....    OOOOOOOOOOOO",
"OOOOOOOO....XXXXoooo....ooooooooooooXXXXXXXX....    OOOOOOOOOOOO",
"OOOOOOOO....XXXXoooo....ooooooooooooXXXXXXXX....    OOOOOOOOOOOO",
"OOOOOOOO........ooooooooXXXXooooXXXXoooo....    XXXX    OOOOOOOO",
"OOOOOOOO........ooooooooXXXXooooXXXXoooo....    XXXX    OOOOOOOO",
"OOOOOOOO........ooooooooXXXXooooXXXXoooo....    XXXX    OOOOOOOO",
"OOOOOOOO........ooooooooXXXXooooXXXXoooo....    XXXX    OOOOOOOO",
"OOOO....XXXX    XXXXoooooooo........        ........    OOOOOOOO",
"OOOO....XXXX    XXXXoooooooo........        ........    OOOOOOOO",
"OOOO....XXXX    XXXXoooooooo........        ........    OOOOOOOO",
"OOOO....XXXX    XXXXoooooooo........        ........    OOOOOOOO",
"OOOO    ....    ....XXXXooooXXXXooooXXXX....XXXXXXXX....    OOOO",
"OOOO    ....    ....XXXXooooXXXXooooXXXX....XXXXXXXX....    OOOO",
"OOOO    ....    ....XXXXooooXXXXooooXXXX....XXXXXXXX....    OOOO",
"OOOO    ....    ....XXXXooooXXXXooooXXXX....XXXXXXXX....    OOOO",
"OOOO    XXXXoooo........XXXXooooXXXX    XXXXXXXXXXXX        OOOO",
"OOOO    XXXXoooo........XXXXooooXXXX    XXXXXXXXXXXX        OOOO",
"OOOO    XXXXoooo........XXXXooooXXXX    XXXXXXXXXXXX        OOOO",
"OOOO    XXXXoooo........XXXXooooXXXX    XXXXXXXXXXXX        OOOO",
"OOOO    ....XXXXoooo....ooooXXXX....    ....XXXX    ....    OOOO",
"OOOO    ....XXXXoooo....ooooXXXX....    ....XXXX    ....    OOOO",
"OOOO    ....XXXXoooo....ooooXXXX....    ....XXXX    ....    OOOO",
"OOOO    ....XXXXoooo....ooooXXXX....    ....XXXX    ....    OOOO",
"OOOO    ............    ........XXXXXXXX    ............    OOOO",
"OOOO    ............    ........XXXXXXXX    ............    OOOO",
"OOOO    ............    ........XXXXXXXX    ............    OOOO",
"OOOO    ............    ........XXXXXXXX    ............    OOOO",
"OOOO    ........        ....XXXX........        ........    OOOO",
"OOOO    ........        ....XXXX........        ........    OOOO",
"OOOO    ........        ....XXXX........        ........    OOOO",
"OOOO    ........        ....XXXX........        ........    OOOO",
"OOOOOOOO    ....        ................                OOOOOOOO",
"OOOOOOOO    ....        ................                OOOOOOOO",
"OOOOOOOO    ....        ................                OOOOOOOO",
"OOOOOOOO    ....        ................                OOOOOOOO",
"OOOOOOOOOOOO                ........            OOOOOOOOOOOOOOOO",
"OOOOOOOOOOOO                ........            OOOOOOOOOOOOOOOO",
"OOOOOOOOOOOO                ........            OOOOOOOOOOOOOOOO",
"OOOOOOOOOOOO                ........            OOOOOOOOOOOOOOOO",
"OOOOOOOOOOOOOOOOOOOOOOOO                OOOOOOOOOOOOOOOOOOOOOOOO",
"OOOOOOOOOOOOOOOOOOOOOOOO                OOOOOOOOOOOOOOOOOOOOOOOO",
"OOOOOOOOOOOOOOOOOOOOOOOO                OOOOOOOOOOOOOOOOOOOOOOOO",
"OOOOOOOOOOOOOOOOOOOOOOOO                OOOOOOOOOOOOOOOOOOOOOOOO",
"OOOOOOOOOOOOOOOOOOOOOOOOOOOOOOOOOOOOOOOOOOOOOOOOOOOOOOOOOOOOOOOO",
"OOOOOOOOOOOOOOOOOOOOOOOOOOOOOOOOOOOOOOOOOOOOOOOOOOOOOOOOOOOOOOOO",
"OOOOOOOOOOOOOOOOOOOOOOOOOOOOOOOOOOOOOOOOOOOOOOOOOOOOOOOOOOOOOOOO",
"OOOOOOOOOOOOOOOOOOOOOOOOOOOOOOOOOOOOOOOOOOOOOOOOOOOOOOOOOOOOOOOO"
};
